<svg xmlns="http://www.w3.org/2000/svg" xmlns:xlink="http://www.w3.org/1999/xlink" width="110.796" height="32.838" viewBox="0 0 110.796 32.838"><defs><style>.a{fill:rgba(0,0,0,0);}.b{clip-path:url(#a);}.c{fill:#fff;}.d{fill:#a6a6a6;}.e{fill:#070707;}</style><clipPath id="a"><rect class="a" width="110.796" height="32.838"/></clipPath></defs><g transform="translate(-994.225 -1066.999)"><g transform="translate(994.225 1066.999)"><g transform="translate(0 0)"><g class="b"><path class="c" d="M114.8,33.7a3.145,3.145,0,0,1-3.148,3.145H8.625A3.149,3.149,0,0,1,5.473,33.7V8.621A3.153,3.153,0,0,1,8.625,5.472h103.03A3.148,3.148,0,0,1,114.8,8.621Z" transform="translate(-4.742 -4.741)"/><path class="d" d="M106.914,32.838H3.883A3.884,3.884,0,0,1,0,28.961V3.881A3.887,3.887,0,0,1,3.883,0h103.03A3.888,3.888,0,0,1,110.8,3.881v25.08a3.883,3.883,0,0,1-3.882,3.877"/><path class="c" d="M114.8,33.7a3.145,3.145,0,0,1-3.148,3.145H8.625A3.149,3.149,0,0,1,5.473,33.7V8.621A3.153,3.153,0,0,1,8.625,5.472h103.03A3.148,3.148,0,0,1,114.8,8.621Z" transform="translate(-4.742 -4.741)"/><path d="M92.894,82.157a4.76,4.76,0,0,1,2.267-3.994,4.875,4.875,0,0,0-3.84-2.076c-1.615-.17-3.182.966-4,.966-.839,0-2.106-.95-3.472-.922a5.112,5.112,0,0,0-4.3,2.624c-1.861,3.221-.473,7.956,1.31,10.559.892,1.276,1.934,2.7,3.3,2.649,1.334-.054,1.833-.85,3.443-.85s2.063.85,3.455.818c1.432-.022,2.334-1.281,3.194-2.568A10.525,10.525,0,0,0,95.7,86.389a4.605,4.605,0,0,1-2.808-4.232" transform="translate(-68.154 -65.911)"/><path d="M145.221,41.586a4.685,4.685,0,0,0,1.072-3.358,4.774,4.774,0,0,0-3.086,1.6,4.459,4.459,0,0,0-1.1,3.234,3.942,3.942,0,0,0,3.114-1.472" transform="translate(-123.109 -33.123)"/><path class="e" d="M270.13,122.816h-1.865l-1.021-3.21h-3.551l-.973,3.21H260.9l3.519-10.928H266.6Zm-3.194-4.557-.924-2.854q-.147-.437-.551-2.059h-.033q-.163.7-.519,2.059L264,118.259Z" transform="translate(-226.062 -96.946)"/><path class="e" d="M348.393,137.5a4.462,4.462,0,0,1-1.092,3.177,3.2,3.2,0,0,1-2.429,1.038,2.431,2.431,0,0,1-2.25-1.118v4.135h-1.751v-8.485q0-1.263-.065-2.59h1.54l.1,1.249h.033a3.115,3.115,0,0,1,4.985-.31,4.359,4.359,0,0,1,.931,2.9m-1.784.064a3.248,3.248,0,0,0-.519-1.9,1.793,1.793,0,0,0-1.524-.778,1.821,1.821,0,0,0-1.175.429,1.993,1.993,0,0,0-.689,1.127,2.289,2.289,0,0,0-.081.533v1.315a2.108,2.108,0,0,0,.527,1.452,1.75,1.75,0,0,0,1.37.592,1.794,1.794,0,0,0,1.54-.762,3.354,3.354,0,0,0,.552-2.011" transform="translate(-295.294 -115.669)"/><path class="e" d="M416.254,137.5a4.462,4.462,0,0,1-1.092,3.177,3.2,3.2,0,0,1-2.43,1.038,2.431,2.431,0,0,1-2.25-1.118v4.135h-1.751v-8.485q0-1.263-.065-2.59h1.54l.1,1.249h.033a3.115,3.115,0,0,1,4.986-.31,4.363,4.363,0,0,1,.931,2.9m-1.784.064a3.249,3.249,0,0,0-.52-1.9,1.791,1.791,0,0,0-1.522-.778,1.828,1.828,0,0,0-1.177.429,1.992,1.992,0,0,0-.688,1.127,2.347,2.347,0,0,0-.082.533v1.315a2.116,2.116,0,0,0,.526,1.452,1.754,1.754,0,0,0,1.371.592,1.792,1.792,0,0,0,1.54-.762,3.354,3.354,0,0,0,.552-2.011" transform="translate(-354.092 -115.669)"/><path class="e" d="M497.387,118.7a2.92,2.92,0,0,1-.971,2.27,4.306,4.306,0,0,1-2.977.957,5.2,5.2,0,0,1-2.83-.681l.4-1.459a4.871,4.871,0,0,0,2.529.681,2.386,2.386,0,0,0,1.54-.446,1.456,1.456,0,0,0,.553-1.191,1.527,1.527,0,0,0-.455-1.119,4.219,4.219,0,0,0-1.508-.843q-2.87-1.07-2.871-3.13a2.764,2.764,0,0,1,1.013-2.2,4.007,4.007,0,0,1,2.684-.86,5.3,5.3,0,0,1,2.481.519l-.439,1.427a4.337,4.337,0,0,0-2.1-.5,2.135,2.135,0,0,0-1.449.454,1.3,1.3,0,0,0-.439.99,1.338,1.338,0,0,0,.5,1.07,5.67,5.67,0,0,0,1.588.843,5.385,5.385,0,0,1,2.075,1.329,2.769,2.769,0,0,1,.668,1.9" transform="translate(-425.092 -95.898)"/><path class="e" d="M553.683,123.278h-1.93V127.1q0,1.46,1.021,1.458a3.068,3.068,0,0,0,.778-.081l.049,1.33a3.968,3.968,0,0,1-1.362.194,2.1,2.1,0,0,1-1.622-.633,3.1,3.1,0,0,1-.584-2.124v-3.972h-1.15v-1.314h1.15v-1.443l1.719-.519v1.962h1.93Z" transform="translate(-475.584 -103.974)"/><path class="e" d="M599.812,137.55a4.322,4.322,0,0,1-1.038,2.983,3.7,3.7,0,0,1-2.885,1.2,3.527,3.527,0,0,1-2.765-1.15,4.191,4.191,0,0,1-1.03-2.9,4.287,4.287,0,0,1,1.062-3,3.68,3.68,0,0,1,2.863-1.168,3.6,3.6,0,0,1,2.788,1.151,4.138,4.138,0,0,1,1.006,2.884m-1.815.04a3.528,3.528,0,0,0-.469-1.859,1.733,1.733,0,0,0-1.573-.939,1.758,1.758,0,0,0-1.605.939,3.586,3.586,0,0,0-.47,1.892,3.518,3.518,0,0,0,.47,1.86,1.8,1.8,0,0,0,3.164-.016A3.543,3.543,0,0,0,598,137.59" transform="translate(-513.024 -115.685)"/><path class="e" d="M665.157,135.2a3.05,3.05,0,0,0-.552-.048,1.652,1.652,0,0,0-1.427.7,2.628,2.628,0,0,0-.437,1.556v4.134H660.99v-5.4q0-1.361-.051-2.481h1.525l.064,1.508h.049a2.7,2.7,0,0,1,.875-1.249,2.117,2.117,0,0,1,1.265-.422,2.806,2.806,0,0,1,.438.032Z" transform="translate(-572.675 -115.669)"/><path class="e" d="M705.716,137.146a4.093,4.093,0,0,1-.064.794H700.4a2.286,2.286,0,0,0,.762,1.785,2.607,2.607,0,0,0,1.718.55A5.81,5.81,0,0,0,705,139.9l.274,1.215a6.57,6.57,0,0,1-2.642.487,3.83,3.83,0,0,1-2.879-1.077,3.984,3.984,0,0,1-1.045-2.894,4.514,4.514,0,0,1,.974-2.966,3.355,3.355,0,0,1,2.755-1.264,2.936,2.936,0,0,1,2.579,1.264,4.252,4.252,0,0,1,.695,2.478m-1.669-.454a2.369,2.369,0,0,0-.34-1.346,1.528,1.528,0,0,0-1.394-.731,1.66,1.66,0,0,0-1.394.714,2.617,2.617,0,0,0-.518,1.362Z" transform="translate(-605.405 -115.589)"/></g></g><path class="c" d="M2.674,2.357a1.919,1.919,0,0,1,1.116.321,2.044,2.044,0,0,1,.712.871,2.977,2.977,0,0,1,.245,1.227A2.977,2.977,0,0,1,4.5,6a2.044,2.044,0,0,1-.712.871A1.919,1.919,0,0,1,2.674,7.2H1.022A.413.413,0,0,1,.6,6.774v-4a.413.413,0,0,1,.422-.422ZM2.6,6.4a1.052,1.052,0,0,0,.933-.46,2.035,2.035,0,0,0,.311-1.165,2.018,2.018,0,0,0-.315-1.165,1.054,1.054,0,0,0-.93-.46H1.464V6.4Zm3.65.373a.415.415,0,0,1-.118.3.426.426,0,0,1-.595,0,.415.415,0,0,1-.118-.3V3.919a.415.415,0,0,1,.118-.3.426.426,0,0,1,.595,0,.415.415,0,0,1,.118.3ZM5.833,3.048A.549.549,0,0,1,5.5,2.972a.325.325,0,0,1-.1-.27V2.571a.313.313,0,0,1,.1-.27.569.569,0,0,1,.332-.076.564.564,0,0,1,.339.076.325.325,0,0,1,.1.27V2.7a.318.318,0,0,1-.1.273A.6.6,0,0,1,5.833,3.048ZM6.891,6.622a.336.336,0,0,1-.062-.207.393.393,0,0,1,.38-.366.39.39,0,0,1,.277.131,1.458,1.458,0,0,0,.432.318,1.288,1.288,0,0,0,.543.1Q9,6.58,9,6.193a.331.331,0,0,0-.183-.3,2.585,2.585,0,0,0-.57-.207,4.944,4.944,0,0,1-.653-.221,1.156,1.156,0,0,1-.436-.335.929.929,0,0,1-.183-.6.915.915,0,0,1,.19-.577,1.251,1.251,0,0,1,.5-.38,1.61,1.61,0,0,1,.653-.135,2.008,2.008,0,0,1,.705.131,1.226,1.226,0,0,1,.553.387.384.384,0,0,1,.09.249.321.321,0,0,1-.131.263.348.348,0,0,1-.221.076.337.337,0,0,1-.249-.1A.878.878,0,0,0,8.74,4.2a1.063,1.063,0,0,0-.446-.09q-.525,0-.525.38a.325.325,0,0,0,.1.245.661.661,0,0,0,.245.145q.149.052.418.128a4.572,4.572,0,0,1,.622.214,1.068,1.068,0,0,1,.422.339.971.971,0,0,1,.173.6.922.922,0,0,1-.2.591,1.269,1.269,0,0,1-.515.384,1.662,1.662,0,0,1-.646.131,2.341,2.341,0,0,1-.85-.152A1.413,1.413,0,0,1,6.891,6.622Zm5.461-3.194a1.581,1.581,0,0,1,.864.245,1.721,1.721,0,0,1,.612.681,2.125,2.125,0,0,1,.225.989,2.174,2.174,0,0,1-.221.992,1.7,1.7,0,0,1-.6.684,1.54,1.54,0,0,1-.847.245,1.482,1.482,0,0,1-.626-.135,1.659,1.659,0,0,1-.487-.328V8.157a.415.415,0,0,1-.118.3.4.4,0,0,1-.3.121.4.4,0,0,1-.3-.118.412.412,0,0,1-.118-.3V3.919a.415.415,0,0,1,.118-.3.426.426,0,0,1,.595,0,.415.415,0,0,1,.118.3v.028a1.431,1.431,0,0,1,.463-.363A1.324,1.324,0,0,1,12.352,3.428Zm-.1,3.076a.912.912,0,0,0,.726-.332,1.233,1.233,0,0,0,.283-.83,1.229,1.229,0,0,0-.28-.826.913.913,0,0,0-.729-.328.923.923,0,0,0-.733.328,1.219,1.219,0,0,0-.283.826,1.233,1.233,0,0,0,.283.83A.919.919,0,0,0,12.249,6.5ZM18.3,5.35a1.976,1.976,0,0,1-.249.992,1.758,1.758,0,0,1-.681.681,1.995,1.995,0,0,1-1.9,0,1.765,1.765,0,0,1-.677-.681,1.976,1.976,0,0,1-.249-.992,1.976,1.976,0,0,1,.249-.992,1.79,1.79,0,0,1,.677-.684,1.97,1.97,0,0,1,1.9,0,1.783,1.783,0,0,1,.681.684A1.976,1.976,0,0,1,18.3,5.35Zm-.83,0a1.267,1.267,0,0,0-.142-.6,1.043,1.043,0,0,0-.38-.411,1.036,1.036,0,0,0-1.058,0,1.043,1.043,0,0,0-.38.411,1.267,1.267,0,0,0-.142.6,1.247,1.247,0,0,0,.142.6,1.049,1.049,0,0,0,.38.408,1.036,1.036,0,0,0,1.058,0,1.049,1.049,0,0,0,.38-.408A1.247,1.247,0,0,0,17.468,5.35Zm3.5-1.922a1.07,1.07,0,0,1,.975.418A2.126,2.126,0,0,1,22.211,5v1.77a.415.415,0,0,1-.118.3.426.426,0,0,1-.595,0,.415.415,0,0,1-.118-.3V5a1,1,0,0,0-.159-.6.632.632,0,0,0-.546-.218.843.843,0,0,0-.629.232A.8.8,0,0,0,19.819,5v1.77a.415.415,0,0,1-.118.3.426.426,0,0,1-.595,0,.415.415,0,0,1-.118-.3V3.919a.415.415,0,0,1,.118-.3.426.426,0,0,1,.595,0,.415.415,0,0,1,.118.3v.118a1.67,1.67,0,0,1,.487-.429A1.263,1.263,0,0,1,20.966,3.428ZM23.89,6.774a.415.415,0,0,1-.118.3.426.426,0,0,1-.595,0,.415.415,0,0,1-.118-.3V3.919a.415.415,0,0,1,.118-.3.426.426,0,0,1,.595,0,.415.415,0,0,1,.118.3Zm-.422-3.726a.549.549,0,0,1-.332-.076.325.325,0,0,1-.1-.27V2.571a.313.313,0,0,1,.1-.27.777.777,0,0,1,.671,0,.325.325,0,0,1,.1.27V2.7a.318.318,0,0,1-.1.273A.6.6,0,0,1,23.469,3.048Zm3.187.38a1.581,1.581,0,0,1,.864.245,1.721,1.721,0,0,1,.612.681,2.125,2.125,0,0,1,.225.989,2.174,2.174,0,0,1-.221.992,1.7,1.7,0,0,1-.6.684,1.54,1.54,0,0,1-.847.245,1.482,1.482,0,0,1-.626-.135A1.659,1.659,0,0,1,25.57,6.8v.041a.415.415,0,0,1-.118.3.4.4,0,0,1-.3.121.4.4,0,0,1-.3-.118.412.412,0,0,1-.118-.3V2.5a.415.415,0,0,1,.118-.3.426.426,0,0,1,.595,0,.415.415,0,0,1,.118.3V3.947a1.431,1.431,0,0,1,.463-.363A1.324,1.324,0,0,1,26.656,3.428Zm-.1,3.076a.912.912,0,0,0,.726-.332,1.233,1.233,0,0,0,.283-.83,1.229,1.229,0,0,0-.28-.826.913.913,0,0,0-.729-.328.923.923,0,0,0-.733.328,1.219,1.219,0,0,0-.283.826,1.233,1.233,0,0,0,.283.83A.919.919,0,0,0,26.552,6.5Zm3.394.27a.413.413,0,0,1-.422.422.389.389,0,0,1-.29-.121.415.415,0,0,1-.118-.3V2.5a.413.413,0,0,1,.422-.422.389.389,0,0,1,.29.121.415.415,0,0,1,.118.3ZM34.163,5.26a.355.355,0,0,1-.131.27.44.44,0,0,1-.29.1H31.46a1.042,1.042,0,0,0,.38.639,1.063,1.063,0,0,0,.671.232,1.486,1.486,0,0,0,.442-.052,1.152,1.152,0,0,0,.252-.111l.128-.08a.527.527,0,0,1,.235-.062.339.339,0,0,1,.249.1.332.332,0,0,1,.1.242.431.431,0,0,1-.194.339,1.652,1.652,0,0,1-.518.27,2.143,2.143,0,0,1-1.67-.131,1.689,1.689,0,0,1-.667-.667,1.945,1.945,0,0,1-.235-.957,2.12,2.12,0,0,1,.249-1.044,1.767,1.767,0,0,1,.657-.688,1.7,1.7,0,0,1,.871-.239,1.615,1.615,0,0,1,.861.249,1.86,1.86,0,0,1,.646.671A1.8,1.8,0,0,1,34.163,5.26ZM32.414,4.189a.858.858,0,0,0-.947.754h1.811V4.894A.715.715,0,0,0,33,4.4.9.9,0,0,0,32.414,4.189ZM40.109,5.26a.355.355,0,0,1-.131.27.44.44,0,0,1-.29.1H37.406a1.042,1.042,0,0,0,.38.639,1.063,1.063,0,0,0,.671.232,1.486,1.486,0,0,0,.442-.052,1.152,1.152,0,0,0,.252-.111l.128-.08a.527.527,0,0,1,.235-.062.339.339,0,0,1,.249.1.332.332,0,0,1,.1.242.431.431,0,0,1-.194.339,1.652,1.652,0,0,1-.518.27,2.143,2.143,0,0,1-1.67-.131,1.689,1.689,0,0,1-.667-.667,1.945,1.945,0,0,1-.235-.957,2.12,2.12,0,0,1,.249-1.044,1.767,1.767,0,0,1,.657-.688,1.7,1.7,0,0,1,.871-.239,1.615,1.615,0,0,1,.861.249,1.86,1.86,0,0,1,.646.671A1.8,1.8,0,0,1,40.109,5.26ZM38.36,4.189a.858.858,0,0,0-.947.754h1.811V4.894a.715.715,0,0,0-.283-.5A.9.9,0,0,0,38.36,4.189Zm4.418-.76a1.07,1.07,0,0,1,.975.418A2.126,2.126,0,0,1,44.022,5v1.77a.415.415,0,0,1-.118.3.426.426,0,0,1-.595,0,.415.415,0,0,1-.118-.3V5a1,1,0,0,0-.159-.6.632.632,0,0,0-.546-.218.843.843,0,0,0-.629.232A.8.8,0,0,0,41.63,5v1.77a.415.415,0,0,1-.118.3.426.426,0,0,1-.595,0,.415.415,0,0,1-.118-.3V3.919a.415.415,0,0,1,.118-.3.426.426,0,0,1,.595,0,.415.415,0,0,1,.118.3v.118a1.67,1.67,0,0,1,.487-.429A1.263,1.263,0,0,1,42.777,3.428Z" transform="translate(35.289 3.174)"/></g><path d="M2.674,2.357a1.919,1.919,0,0,1,1.116.321,2.044,2.044,0,0,1,.712.871,2.977,2.977,0,0,1,.245,1.227A2.977,2.977,0,0,1,4.5,6a2.044,2.044,0,0,1-.712.871A1.919,1.919,0,0,1,2.674,7.2H1.022A.413.413,0,0,1,.6,6.774v-4a.413.413,0,0,1,.422-.422ZM2.6,6.4a1.052,1.052,0,0,0,.933-.46,2.035,2.035,0,0,0,.311-1.165,2.018,2.018,0,0,0-.315-1.165,1.054,1.054,0,0,0-.93-.46H1.464V6.4Zm3.65.373a.415.415,0,0,1-.118.3.426.426,0,0,1-.595,0,.415.415,0,0,1-.118-.3V3.919a.415.415,0,0,1,.118-.3.426.426,0,0,1,.595,0,.415.415,0,0,1,.118.3ZM5.833,3.048A.549.549,0,0,1,5.5,2.972a.325.325,0,0,1-.1-.27V2.571a.313.313,0,0,1,.1-.27.569.569,0,0,1,.332-.076.564.564,0,0,1,.339.076.325.325,0,0,1,.1.27V2.7a.318.318,0,0,1-.1.273A.6.6,0,0,1,5.833,3.048ZM6.891,6.622a.336.336,0,0,1-.062-.207.393.393,0,0,1,.38-.366.39.39,0,0,1,.277.131,1.458,1.458,0,0,0,.432.318,1.288,1.288,0,0,0,.543.1Q9,6.58,9,6.193a.331.331,0,0,0-.183-.3,2.585,2.585,0,0,0-.57-.207,4.944,4.944,0,0,1-.653-.221,1.156,1.156,0,0,1-.436-.335.929.929,0,0,1-.183-.6.915.915,0,0,1,.19-.577,1.251,1.251,0,0,1,.5-.38,1.61,1.61,0,0,1,.653-.135,2.008,2.008,0,0,1,.705.131,1.226,1.226,0,0,1,.553.387.384.384,0,0,1,.09.249.321.321,0,0,1-.131.263.348.348,0,0,1-.221.076.337.337,0,0,1-.249-.1A.878.878,0,0,0,8.74,4.2a1.063,1.063,0,0,0-.446-.09q-.525,0-.525.38a.325.325,0,0,0,.1.245.661.661,0,0,0,.245.145q.149.052.418.128a4.571,4.571,0,0,1,.622.214,1.068,1.068,0,0,1,.422.339.971.971,0,0,1,.173.6.922.922,0,0,1-.2.591,1.269,1.269,0,0,1-.515.384,1.662,1.662,0,0,1-.646.131,2.341,2.341,0,0,1-.85-.152A1.413,1.413,0,0,1,6.891,6.622Zm5.461-3.194a1.581,1.581,0,0,1,.864.245,1.721,1.721,0,0,1,.612.681,2.125,2.125,0,0,1,.225.989,2.174,2.174,0,0,1-.221.992,1.7,1.7,0,0,1-.6.684,1.54,1.54,0,0,1-.847.245,1.482,1.482,0,0,1-.626-.135,1.659,1.659,0,0,1-.487-.328V8.157a.415.415,0,0,1-.118.3.4.4,0,0,1-.3.121.4.4,0,0,1-.3-.118.412.412,0,0,1-.118-.3V3.919a.415.415,0,0,1,.118-.3.426.426,0,0,1,.595,0,.415.415,0,0,1,.118.3v.028a1.431,1.431,0,0,1,.463-.363A1.324,1.324,0,0,1,12.352,3.428Zm-.1,3.076a.912.912,0,0,0,.726-.332,1.233,1.233,0,0,0,.283-.83,1.229,1.229,0,0,0-.28-.826.913.913,0,0,0-.729-.328.923.923,0,0,0-.733.328,1.219,1.219,0,0,0-.283.826,1.233,1.233,0,0,0,.283.83A.919.919,0,0,0,12.249,6.5ZM18.3,5.35a1.976,1.976,0,0,1-.249.992,1.758,1.758,0,0,1-.681.681,1.995,1.995,0,0,1-1.9,0,1.765,1.765,0,0,1-.677-.681,1.976,1.976,0,0,1-.249-.992,1.976,1.976,0,0,1,.249-.992,1.79,1.79,0,0,1,.677-.684,1.97,1.97,0,0,1,1.9,0,1.783,1.783,0,0,1,.681.684A1.976,1.976,0,0,1,18.3,5.35Zm-.83,0a1.267,1.267,0,0,0-.142-.6,1.043,1.043,0,0,0-.38-.411,1.036,1.036,0,0,0-1.058,0,1.043,1.043,0,0,0-.38.411,1.267,1.267,0,0,0-.142.6,1.247,1.247,0,0,0,.142.6,1.049,1.049,0,0,0,.38.408,1.036,1.036,0,0,0,1.058,0,1.049,1.049,0,0,0,.38-.408A1.247,1.247,0,0,0,17.468,5.35Zm3.5-1.922a1.07,1.07,0,0,1,.975.418A2.126,2.126,0,0,1,22.211,5v1.77a.415.415,0,0,1-.118.3.426.426,0,0,1-.595,0,.415.415,0,0,1-.118-.3V5a1,1,0,0,0-.159-.6.632.632,0,0,0-.546-.218.843.843,0,0,0-.629.232A.8.8,0,0,0,19.819,5v1.77a.415.415,0,0,1-.118.3.426.426,0,0,1-.595,0,.415.415,0,0,1-.118-.3V3.919a.415.415,0,0,1,.118-.3.426.426,0,0,1,.595,0,.415.415,0,0,1,.118.3v.118a1.67,1.67,0,0,1,.487-.429A1.263,1.263,0,0,1,20.966,3.428ZM23.89,6.774a.415.415,0,0,1-.118.3.426.426,0,0,1-.595,0,.415.415,0,0,1-.118-.3V3.919a.415.415,0,0,1,.118-.3.426.426,0,0,1,.595,0,.415.415,0,0,1,.118.3Zm-.422-3.726a.549.549,0,0,1-.332-.076.325.325,0,0,1-.1-.27V2.571a.313.313,0,0,1,.1-.27.777.777,0,0,1,.671,0,.325.325,0,0,1,.1.27V2.7a.318.318,0,0,1-.1.273A.6.6,0,0,1,23.469,3.048Zm3.187.38a1.581,1.581,0,0,1,.864.245,1.721,1.721,0,0,1,.612.681,2.125,2.125,0,0,1,.225.989,2.174,2.174,0,0,1-.221.992,1.7,1.7,0,0,1-.6.684,1.54,1.54,0,0,1-.847.245,1.482,1.482,0,0,1-.626-.135A1.659,1.659,0,0,1,25.57,6.8v.041a.415.415,0,0,1-.118.3.4.4,0,0,1-.3.121.4.4,0,0,1-.3-.118.412.412,0,0,1-.118-.3V2.5a.415.415,0,0,1,.118-.3.426.426,0,0,1,.595,0,.415.415,0,0,1,.118.3V3.947a1.431,1.431,0,0,1,.463-.363A1.324,1.324,0,0,1,26.656,3.428Zm-.1,3.076a.912.912,0,0,0,.726-.332,1.233,1.233,0,0,0,.283-.83,1.229,1.229,0,0,0-.28-.826.913.913,0,0,0-.729-.328.923.923,0,0,0-.733.328,1.219,1.219,0,0,0-.283.826,1.233,1.233,0,0,0,.283.83A.919.919,0,0,0,26.552,6.5Zm3.394.27a.413.413,0,0,1-.422.422.389.389,0,0,1-.29-.121.415.415,0,0,1-.118-.3V2.5a.413.413,0,0,1,.422-.422.389.389,0,0,1,.29.121.415.415,0,0,1,.118.3ZM34.163,5.26a.355.355,0,0,1-.131.27.44.44,0,0,1-.29.1H31.46a1.042,1.042,0,0,0,.38.639,1.063,1.063,0,0,0,.671.232,1.486,1.486,0,0,0,.442-.052,1.152,1.152,0,0,0,.252-.111l.128-.08a.527.527,0,0,1,.235-.062.339.339,0,0,1,.249.1.332.332,0,0,1,.1.242.431.431,0,0,1-.194.339,1.652,1.652,0,0,1-.518.27,2.143,2.143,0,0,1-1.67-.131,1.689,1.689,0,0,1-.667-.667,1.945,1.945,0,0,1-.235-.957,2.12,2.12,0,0,1,.249-1.044,1.767,1.767,0,0,1,.657-.688,1.7,1.7,0,0,1,.871-.239,1.615,1.615,0,0,1,.861.249,1.86,1.86,0,0,1,.646.671A1.8,1.8,0,0,1,34.163,5.26ZM32.414,4.189a.858.858,0,0,0-.947.754h1.811V4.894A.715.715,0,0,0,33,4.4.9.9,0,0,0,32.414,4.189ZM40.109,5.26a.355.355,0,0,1-.131.27.44.44,0,0,1-.29.1H37.406a1.042,1.042,0,0,0,.38.639,1.063,1.063,0,0,0,.671.232,1.486,1.486,0,0,0,.442-.052,1.152,1.152,0,0,0,.252-.111l.128-.08a.527.527,0,0,1,.235-.062.339.339,0,0,1,.249.1.332.332,0,0,1,.1.242.431.431,0,0,1-.194.339,1.652,1.652,0,0,1-.518.27,2.143,2.143,0,0,1-1.67-.131,1.689,1.689,0,0,1-.667-.667,1.945,1.945,0,0,1-.235-.957,2.12,2.12,0,0,1,.249-1.044,1.767,1.767,0,0,1,.657-.688,1.7,1.7,0,0,1,.871-.239,1.615,1.615,0,0,1,.861.249,1.86,1.86,0,0,1,.646.671A1.8,1.8,0,0,1,40.109,5.26ZM38.36,4.189a.858.858,0,0,0-.947.754h1.811V4.894a.715.715,0,0,0-.283-.5A.9.9,0,0,0,38.36,4.189Zm4.418-.76a1.07,1.07,0,0,1,.975.418A2.126,2.126,0,0,1,44.022,5v1.77a.415.415,0,0,1-.118.3.426.426,0,0,1-.595,0,.415.415,0,0,1-.118-.3V5a1,1,0,0,0-.159-.6.632.632,0,0,0-.546-.218.843.843,0,0,0-.629.232A.8.8,0,0,0,41.63,5v1.77a.415.415,0,0,1-.118.3.426.426,0,0,1-.595,0,.415.415,0,0,1-.118-.3V3.919a.415.415,0,0,1,.118-.3.426.426,0,0,1,.595,0,.415.415,0,0,1,.118.3v.118a1.67,1.67,0,0,1,.487-.429A1.263,1.263,0,0,1,42.777,3.428Z" transform="translate(1029.514 1070.172)"/></g></svg>