<svg xmlns="http://www.w3.org/2000/svg" xmlns:xlink="http://www.w3.org/1999/xlink" width="112.131" height="32.838" viewBox="0 0 112.131 32.838"><defs><style>.a{fill:none;}.b{clip-path:url(#a);}.c{fill:#fff;}.d{fill:#a6a6a6;}.e{clip-path:url(#b);}.f{fill:url(#c);}.g{clip-path:url(#d);}.h{fill:url(#e);}.i{clip-path:url(#f);}.j{fill:url(#g);}.k{clip-path:url(#h);}.l{fill:url(#i);}.m{fill:#070707;}</style><clipPath id="a"><rect class="a" width="112.131" height="32.838"/></clipPath><clipPath id="b"><path class="a" d="M61.665,45.411a1.622,1.622,0,0,0-.385,1.154V64.71a1.623,1.623,0,0,0,.385,1.154l.06.055L72.013,55.755v-.24L61.725,45.351Z" transform="translate(-61.28 -45.351)"/></clipPath><linearGradient id="c" x1="0.067" y1="1.027" x2="0.072" y2="1.027" gradientUnits="objectBoundingBox"><stop offset="0" stop-color="#00a0ff"/><stop offset="0.007" stop-color="#00a1ff"/><stop offset="0.26" stop-color="#00beff"/><stop offset="0.512" stop-color="#00d2ff"/><stop offset="0.76" stop-color="#00dfff"/><stop offset="1" stop-color="#00e3ff"/></linearGradient><clipPath id="d"><path class="a" d="M140.737,98.891v.24l3.425,3.39.081-.044,4.062-2.28c1.159-.652,1.159-1.719,0-2.367l-4.062-2.284-.077-.044Z" transform="translate(-140.737 -95.501)"/></clipPath><linearGradient id="e" x1="-2.178" y1="2.838" x2="-2.163" y2="2.838" gradientUnits="objectBoundingBox"><stop offset="0" stop-color="#ffe000"/><stop offset="0.409" stop-color="#ffbd00"/><stop offset="0.775" stop-color="orange"/><stop offset="1" stop-color="#ff9c00"/></linearGradient><clipPath id="f"><path class="a" d="M64.13,131.713a1.365,1.365,0,0,0,1.727.048l12.128-6.811-3.506-3.466Z" transform="translate(-64.13 -121.484)"/></clipPath><linearGradient id="g" x1="-0.132" y1="0.955" x2="-0.127" y2="0.955" gradientUnits="objectBoundingBox"><stop offset="0" stop-color="#ff3a44"/><stop offset="1" stop-color="#c31162"/></linearGradient><clipPath id="h"><path class="a" d="M64.13,43.706,74.478,53.93l3.506-3.466L65.857,43.654a1.944,1.944,0,0,0-.931-.274,1.073,1.073,0,0,0-.8.326" transform="translate(-64.13 -43.38)"/></clipPath><linearGradient id="i" x1="-0.136" y1="1.395" x2="-0.13" y2="1.395" gradientUnits="objectBoundingBox"><stop offset="0" stop-color="#32a071"/><stop offset="0.068" stop-color="#2da771"/><stop offset="0.476" stop-color="#15cf74"/><stop offset="0.801" stop-color="#06e775"/><stop offset="1" stop-color="#00f076"/></linearGradient></defs><g transform="translate(-868 -1066.988)"><g transform="translate(868 1066.988)"><g class="b"><path class="c" d="M107.979,32.837H4.154A4.143,4.143,0,0,1,0,28.732V4.1A4.143,4.143,0,0,1,4.154,0H107.979a4.143,4.143,0,0,1,4.153,4.1V28.732a4.143,4.143,0,0,1-4.153,4.1" transform="translate(-0.001 0.001)"/><path class="d" d="M107.979.658A3.472,3.472,0,0,1,111.467,4.1V28.733a3.472,3.472,0,0,1-3.487,3.447H4.154A3.472,3.472,0,0,1,.666,28.733V4.1A3.472,3.472,0,0,1,4.154.658H107.979m0-.658H4.154A4.143,4.143,0,0,0,0,4.1V28.733a4.143,4.143,0,0,0,4.153,4.1H107.979a4.143,4.143,0,0,0,4.153-4.1V4.1A4.143,4.143,0,0,0,107.979,0" transform="translate(-0.001)"/><path d="M274.725,107.407a3.492,3.492,0,1,0,3.549,3.492,3.463,3.463,0,0,0-3.549-3.492m0,5.608a2.12,2.12,0,1,1,2-2.116,2.029,2.029,0,0,1-2,2.116m-7.734-5.608a3.492,3.492,0,1,0,3.545,3.492,3.46,3.46,0,0,0-3.545-3.492m0,5.608a2.12,2.12,0,1,1,1.991-2.116,2.031,2.031,0,0,1-1.991,2.116m-9.2-4.538v1.484h3.585a3.064,3.064,0,0,1-.815,1.864,3.705,3.705,0,0,1-2.77,1.083,3.94,3.94,0,0,1,0-7.881,3.826,3.826,0,0,1,2.7,1.058l1.058-1.046a5.263,5.263,0,0,0-3.759-1.5,5.425,5.425,0,1,0,0,10.846,5.045,5.045,0,0,0,3.829-1.523,4.859,4.859,0,0,0,1.3-3.463,4.908,4.908,0,0,0-.081-.927Zm37.632,1.15a3.273,3.273,0,0,0-3.025-2.221,3.336,3.336,0,0,0-3.33,3.492,3.436,3.436,0,0,0,3.5,3.491,3.512,3.512,0,0,0,2.945-1.547l-1.2-.793a2.025,2.025,0,0,1-1.74.966,1.8,1.8,0,0,1-1.711-1.058l4.725-1.932ZM290.6,110.79a1.926,1.926,0,0,1,1.845-2.036,1.375,1.375,0,0,1,1.314.741Zm-3.84,3.387h1.553V103.915h-1.553Zm-2.544-5.993h-.052a2.461,2.461,0,0,0-1.857-.778,3.493,3.493,0,0,0,0,6.983,2.424,2.424,0,0,0,1.857-.793h.052v.5a1.8,1.8,0,0,1-1.885,2.052,1.959,1.959,0,0,1-1.78-1.247l-1.351.557a3.37,3.37,0,0,0,3.131,2.065c1.821,0,3.358-1.059,3.358-3.636v-6.27h-1.472Zm-1.776,4.83a2.122,2.122,0,0,1,0-4.233,2.131,2.131,0,0,1,0,4.233m20.25-9.1h-3.715v10.262h1.549v-3.888h2.166a3.194,3.194,0,1,0,0-6.374m.041,4.946h-2.206v-3.519h2.206a1.76,1.76,0,1,1,0,3.519m9.576-1.475a2.911,2.911,0,0,0-2.762,1.571l1.375.57a1.471,1.471,0,0,1,1.415-.754,1.488,1.488,0,0,1,1.631,1.319v.108a3.436,3.436,0,0,0-1.619-.4c-1.481,0-2.989.806-2.989,2.309a2.387,2.387,0,0,0,2.576,2.261,2.2,2.2,0,0,0,1.979-1.006h.053v.793h1.5v-3.936c0-1.819-1.375-2.837-3.155-2.837m-.187,5.623c-.507,0-1.213-.248-1.213-.869,0-.794.88-1.1,1.642-1.1a2.8,2.8,0,0,1,1.416.345,1.873,1.873,0,0,1-1.846,1.623m8.793-5.4-1.781,4.448h-.053l-1.841-4.448H315.57l2.766,6.216-1.578,3.459h1.619l4.262-9.676Zm-13.963,6.565H308.5V103.915h-1.553Z" transform="translate(-218.132 -89.549)"/></g></g><g transform="translate(876.277 1073.123)"><g class="e"><path class="f" d="M15.792,21.674.02,6.086-15.752,21.674.02,37.262Z" transform="translate(5.347 -11.39)"/></g></g><g transform="translate(887.021 1079.897)"><g class="g"><rect class="h" width="8.727" height="7.019" transform="translate(0 0)"/></g></g><g transform="translate(876.663 1083.411)"><g class="i"><path class="j" d="M48.8,82.985,36.472,70.8,24.143,82.985,36.472,95.17Z" transform="translate(-29.545 -77.647)"/></g></g><g transform="translate(876.663 1072.853)"><g class="k"><path class="l" d="M36.881,16.939,49.146,4.818,36.881-7.3,24.617,4.818Z" transform="translate(-29.954 0.457)"/></g></g><path class="m" d="M2.674,2.357a1.919,1.919,0,0,1,1.116.321,2.044,2.044,0,0,1,.712.871,2.977,2.977,0,0,1,.245,1.227A2.977,2.977,0,0,1,4.5,6a2.044,2.044,0,0,1-.712.871A1.919,1.919,0,0,1,2.674,7.2H1.022A.413.413,0,0,1,.6,6.774v-4a.413.413,0,0,1,.422-.422ZM2.6,6.4a1.052,1.052,0,0,0,.933-.46,2.035,2.035,0,0,0,.311-1.165,2.018,2.018,0,0,0-.315-1.165,1.054,1.054,0,0,0-.93-.46H1.464V6.4Zm3.65.373a.415.415,0,0,1-.118.3.426.426,0,0,1-.595,0,.415.415,0,0,1-.118-.3V3.919a.415.415,0,0,1,.118-.3.426.426,0,0,1,.595,0,.415.415,0,0,1,.118.3ZM5.833,3.048A.549.549,0,0,1,5.5,2.972a.325.325,0,0,1-.1-.27V2.571a.313.313,0,0,1,.1-.27.569.569,0,0,1,.332-.076.564.564,0,0,1,.339.076.325.325,0,0,1,.1.27V2.7a.318.318,0,0,1-.1.273A.6.6,0,0,1,5.833,3.048ZM6.891,6.622a.336.336,0,0,1-.062-.207.393.393,0,0,1,.38-.366.39.39,0,0,1,.277.131,1.458,1.458,0,0,0,.432.318,1.288,1.288,0,0,0,.543.1Q9,6.58,9,6.193a.331.331,0,0,0-.183-.3,2.585,2.585,0,0,0-.57-.207,4.944,4.944,0,0,1-.653-.221,1.156,1.156,0,0,1-.436-.335.929.929,0,0,1-.183-.6.915.915,0,0,1,.19-.577,1.251,1.251,0,0,1,.5-.38,1.61,1.61,0,0,1,.653-.135,2.008,2.008,0,0,1,.705.131,1.226,1.226,0,0,1,.553.387.384.384,0,0,1,.09.249.321.321,0,0,1-.131.263.348.348,0,0,1-.221.076.337.337,0,0,1-.249-.1A.878.878,0,0,0,8.74,4.2a1.063,1.063,0,0,0-.446-.09q-.525,0-.525.38a.325.325,0,0,0,.1.245.661.661,0,0,0,.245.145q.149.052.418.128a4.572,4.572,0,0,1,.622.214,1.068,1.068,0,0,1,.422.339.971.971,0,0,1,.173.6.922.922,0,0,1-.2.591,1.269,1.269,0,0,1-.515.384,1.662,1.662,0,0,1-.646.131,2.341,2.341,0,0,1-.85-.152A1.413,1.413,0,0,1,6.891,6.622Zm5.461-3.194a1.581,1.581,0,0,1,.864.245,1.721,1.721,0,0,1,.612.681,2.125,2.125,0,0,1,.225.989,2.174,2.174,0,0,1-.221.992,1.7,1.7,0,0,1-.6.684,1.54,1.54,0,0,1-.847.245,1.482,1.482,0,0,1-.626-.135,1.659,1.659,0,0,1-.487-.328V8.157a.415.415,0,0,1-.118.3.4.4,0,0,1-.3.121.4.4,0,0,1-.3-.118.412.412,0,0,1-.118-.3V3.919a.415.415,0,0,1,.118-.3.426.426,0,0,1,.595,0,.415.415,0,0,1,.118.3v.028a1.431,1.431,0,0,1,.463-.363A1.324,1.324,0,0,1,12.352,3.428Zm-.1,3.076a.912.912,0,0,0,.726-.332,1.233,1.233,0,0,0,.283-.83,1.229,1.229,0,0,0-.28-.826.913.913,0,0,0-.729-.328.923.923,0,0,0-.733.328,1.219,1.219,0,0,0-.283.826,1.233,1.233,0,0,0,.283.83A.919.919,0,0,0,12.249,6.5ZM18.3,5.35a1.976,1.976,0,0,1-.249.992,1.758,1.758,0,0,1-.681.681,1.995,1.995,0,0,1-1.9,0,1.765,1.765,0,0,1-.677-.681,1.976,1.976,0,0,1-.249-.992,1.976,1.976,0,0,1,.249-.992,1.79,1.79,0,0,1,.677-.684,1.97,1.97,0,0,1,1.9,0,1.783,1.783,0,0,1,.681.684A1.976,1.976,0,0,1,18.3,5.35Zm-.83,0a1.267,1.267,0,0,0-.142-.6,1.043,1.043,0,0,0-.38-.411,1.036,1.036,0,0,0-1.058,0,1.043,1.043,0,0,0-.38.411,1.267,1.267,0,0,0-.142.6,1.247,1.247,0,0,0,.142.6,1.049,1.049,0,0,0,.38.408,1.036,1.036,0,0,0,1.058,0,1.049,1.049,0,0,0,.38-.408A1.247,1.247,0,0,0,17.468,5.35Zm3.5-1.922a1.07,1.07,0,0,1,.975.418A2.126,2.126,0,0,1,22.211,5v1.77a.415.415,0,0,1-.118.3.426.426,0,0,1-.595,0,.415.415,0,0,1-.118-.3V5a1,1,0,0,0-.159-.6.632.632,0,0,0-.546-.218.843.843,0,0,0-.629.232A.8.8,0,0,0,19.819,5v1.77a.415.415,0,0,1-.118.3.426.426,0,0,1-.595,0,.415.415,0,0,1-.118-.3V3.919a.415.415,0,0,1,.118-.3.426.426,0,0,1,.595,0,.415.415,0,0,1,.118.3v.118a1.67,1.67,0,0,1,.487-.429A1.263,1.263,0,0,1,20.966,3.428ZM23.89,6.774a.415.415,0,0,1-.118.3.426.426,0,0,1-.595,0,.415.415,0,0,1-.118-.3V3.919a.415.415,0,0,1,.118-.3.426.426,0,0,1,.595,0,.415.415,0,0,1,.118.3Zm-.422-3.726a.549.549,0,0,1-.332-.076.325.325,0,0,1-.1-.27V2.571a.313.313,0,0,1,.1-.27.777.777,0,0,1,.671,0,.325.325,0,0,1,.1.27V2.7a.318.318,0,0,1-.1.273A.6.6,0,0,1,23.469,3.048Zm3.187.38a1.581,1.581,0,0,1,.864.245,1.721,1.721,0,0,1,.612.681,2.125,2.125,0,0,1,.225.989,2.174,2.174,0,0,1-.221.992,1.7,1.7,0,0,1-.6.684,1.54,1.54,0,0,1-.847.245,1.482,1.482,0,0,1-.626-.135A1.659,1.659,0,0,1,25.57,6.8v.041a.415.415,0,0,1-.118.3.4.4,0,0,1-.3.121.4.4,0,0,1-.3-.118.412.412,0,0,1-.118-.3V2.5a.415.415,0,0,1,.118-.3.426.426,0,0,1,.595,0,.415.415,0,0,1,.118.3V3.947a1.431,1.431,0,0,1,.463-.363A1.324,1.324,0,0,1,26.656,3.428Zm-.1,3.076a.912.912,0,0,0,.726-.332,1.233,1.233,0,0,0,.283-.83,1.229,1.229,0,0,0-.28-.826.913.913,0,0,0-.729-.328.923.923,0,0,0-.733.328,1.219,1.219,0,0,0-.283.826,1.233,1.233,0,0,0,.283.83A.919.919,0,0,0,26.552,6.5Zm3.394.27a.413.413,0,0,1-.422.422.389.389,0,0,1-.29-.121.415.415,0,0,1-.118-.3V2.5a.413.413,0,0,1,.422-.422.389.389,0,0,1,.29.121.415.415,0,0,1,.118.3ZM34.163,5.26a.355.355,0,0,1-.131.27.44.44,0,0,1-.29.1H31.46a1.042,1.042,0,0,0,.38.639,1.063,1.063,0,0,0,.671.232,1.486,1.486,0,0,0,.442-.052,1.152,1.152,0,0,0,.252-.111l.128-.08a.527.527,0,0,1,.235-.062.339.339,0,0,1,.249.1.332.332,0,0,1,.1.242.431.431,0,0,1-.194.339,1.652,1.652,0,0,1-.518.27,2.143,2.143,0,0,1-1.67-.131,1.689,1.689,0,0,1-.667-.667,1.945,1.945,0,0,1-.235-.957,2.12,2.12,0,0,1,.249-1.044,1.767,1.767,0,0,1,.657-.688,1.7,1.7,0,0,1,.871-.239,1.615,1.615,0,0,1,.861.249,1.86,1.86,0,0,1,.646.671A1.8,1.8,0,0,1,34.163,5.26ZM32.414,4.189a.858.858,0,0,0-.947.754h1.811V4.894A.715.715,0,0,0,33,4.4.9.9,0,0,0,32.414,4.189ZM40.109,5.26a.355.355,0,0,1-.131.27.44.44,0,0,1-.29.1H37.406a1.042,1.042,0,0,0,.38.639,1.063,1.063,0,0,0,.671.232,1.486,1.486,0,0,0,.442-.052,1.152,1.152,0,0,0,.252-.111l.128-.08a.527.527,0,0,1,.235-.062.339.339,0,0,1,.249.1.332.332,0,0,1,.1.242.431.431,0,0,1-.194.339,1.652,1.652,0,0,1-.518.27,2.143,2.143,0,0,1-1.67-.131,1.689,1.689,0,0,1-.667-.667,1.945,1.945,0,0,1-.235-.957,2.12,2.12,0,0,1,.249-1.044,1.767,1.767,0,0,1,.657-.688,1.7,1.7,0,0,1,.871-.239,1.615,1.615,0,0,1,.861.249,1.86,1.86,0,0,1,.646.671A1.8,1.8,0,0,1,40.109,5.26ZM38.36,4.189a.858.858,0,0,0-.947.754h1.811V4.894a.715.715,0,0,0-.283-.5A.9.9,0,0,0,38.36,4.189Zm4.418-.76a1.07,1.07,0,0,1,.975.418A2.126,2.126,0,0,1,44.022,5v1.77a.415.415,0,0,1-.118.3.426.426,0,0,1-.595,0,.415.415,0,0,1-.118-.3V5a1,1,0,0,0-.159-.6.632.632,0,0,0-.546-.218.843.843,0,0,0-.629.232A.8.8,0,0,0,41.63,5v1.77a.415.415,0,0,1-.118.3.426.426,0,0,1-.595,0,.415.415,0,0,1-.118-.3V3.919a.415.415,0,0,1,.118-.3.426.426,0,0,1,.595,0,.415.415,0,0,1,.118.3v.118a1.67,1.67,0,0,1,.487-.429A1.263,1.263,0,0,1,42.777,3.428Z" transform="translate(903.349 1070.172)"/></g></svg>